<?xml version="1.0" encoding="utf-8"?>
<!-- Generator: Adobe Illustrator 22.0.1, SVG Export Plug-In . SVG Version: 6.00 Build 0)  -->
<svg version="1.1" id="Layer_1" xmlns="http://www.w3.org/2000/svg" xmlns:xlink="http://www.w3.org/1999/xlink" x="0px" y="0px"
	 viewBox="0 0 107.4 110.6" style="enable-background:new 0 0 107.4 110.6;" xml:space="preserve">
<style type="text/css">
	.st0{fill:#FFFFFF;}
</style>
<title>logo</title>
<g>
	<g>
		<g>
			<path class="st0" d="M104.9,55.2c0,7.7-2.5,14.3-7.6,19.8c-5.2,5.7-11.6,8.5-19.2,8.5c-7.7,0-14.1-2.8-19.3-8.4
				c-5.1-5.4-7.6-12-7.6-19.7c0-7.7,2.5-14.3,7.6-19.7C64,30,70.4,27.2,78,27.2c7.6,0,14,2.8,19.2,8.3
				C102.3,40.9,104.9,47.5,104.9,55.2z M93.2,55.3c0-4.5-1.4-8.3-4.2-11.5c-2.9-3.4-6.5-5-11-5c-4.4,0-8.1,1.7-11,5
				c-2.8,3.2-4.2,7.1-4.2,11.6c0,4.4,1.4,8.3,4.2,11.5c3,3.4,6.6,5.2,11,5.2c4.4,0,8.1-1.7,11-5.2C91.8,63.5,93.2,59.7,93.2,55.3z"
				/>
		</g>
	</g>
	<g>
		<g>
			<path class="st0" d="M57.5,55.2c0,7.7-2.5,14.3-7.6,19.8c-5.2,5.7-11.6,8.5-19.2,8.5c-7.7,0-14.1-2.8-19.3-8.4
				c-5.1-5.4-7.6-12-7.6-19.7c0-7.7,2.5-14.3,7.6-19.7c5.2-5.5,11.6-8.3,19.3-8.3c7.6,0,14,2.8,19.2,8.3
				C54.9,40.9,57.5,47.5,57.5,55.2z M45.8,55.3c0-4.5-1.4-8.3-4.2-11.5c-2.9-3.4-6.5-5-11-5c-4.4,0-8.1,1.7-11,5
				c-2.8,3.2-4.2,7.1-4.2,11.6c0,4.4,1.4,8.3,4.2,11.5c3,3.4,6.6,5.2,11,5.2c4.4,0,8.1-1.7,11-5.2C44.4,63.5,45.8,59.7,45.8,55.3z"
				/>
		</g>
	</g>
</g>
</svg>
