<?xml version="1.0" encoding="utf-8"?>
<!-- Generator: Adobe Illustrator 22.0.1, SVG Export Plug-In . SVG Version: 6.00 Build 0)  -->
<svg version="1.1" id="Layer_1" xmlns="http://www.w3.org/2000/svg" xmlns:xlink="http://www.w3.org/1999/xlink" x="0px" y="0px"
	 viewBox="0 0 358 400" style="enable-background:new 0 0 358 400;" xml:space="preserve">
<style type="text/css">
	.st0{opacity:0;}
	.st1{opacity:1.428571e-02;}
	.st2{opacity:2.857143e-02;}
	.st3{opacity:4.285714e-02;}
	.st4{opacity:5.714286e-02;}
	.st5{opacity:7.142857e-02;}
	.st6{opacity:8.571429e-02;}
	.st7{opacity:0.1;}
	.st8{opacity:0.1143;}
	.st9{opacity:0.1286;}
	.st10{opacity:0.1429;}
	.st11{opacity:0.1571;}
	.st12{opacity:0.1714;}
	.st13{opacity:0.1857;}
	.st14{opacity:0.2;}
	.st15{opacity:0.2143;}
	.st16{opacity:0.2286;}
	.st17{opacity:0.2429;}
	.st18{opacity:0.2571;}
	.st19{opacity:0.2714;}
	.st20{opacity:0.2857;}
	.st21{opacity:0.3;}
	.st22{fill:url(#SVGID_1_);}
	.st23{fill:url(#SVGID_2_);}
	.st24{fill:url(#SVGID_3_);}
	.st25{fill:url(#SVGID_4_);}
	.st26{fill:url(#SVGID_5_);}
	.st27{fill:url(#SVGID_6_);}
	.st28{fill:#FFFFFF;}
	.st29{fill:#939292;}
	.st30{fill:url(#SVGID_7_);}
	.st31{fill:url(#SVGID_8_);}
	.st32{fill:url(#SVGID_9_);}
	.st33{fill:url(#SVGID_10_);}
	.st34{fill:url(#SVGID_11_);}
</style>
<g>
	<path class="st0" d="M60,350.1l10.8,2.3l19.2-7.5c9.9-3.8,20.8-3,28.7,2.2l8.2,5.4c5,3.3,12,3.8,18.3,1.2l10.6-4.3
		c7.3-3,15.4-3.5,22.6-1.4l7,2.1l25-2.4c6.7-0.6,12.7-4.5,15.6-10l30.9-57.9l30.9-57.9c3.3-6.2-4.1-11.5-10.6-7.8l-109,62.6
		L59,339.3C53.7,342.3,54.4,348.9,60,350.1z"/>
	<path class="st1" d="M285.4,223.7c3.1-5.9-4.1-10.8-10.4-7.3L230.6,242L169.5,277l-58.9,33.8l-46.7,26.8c-5,2.8-4.5,9.3,0.8,10.4
		l10.4,2.2l18.6-7.1c9.4-3.6,20.2-2.9,27.8,2.1l7.9,5.1c4.8,3.1,11.7,3.6,17.7,1.2l10.2-4.1c7-2.8,15.1-3.3,21.9-1.3l6.7,2l24.2-2.3
		c6.3-0.6,12.4-4.3,15.2-9.5l30.1-56.2L285.4,223.7z"/>
	<path class="st2" d="M283.3,225.5c3-5.6-4.2-10.1-10.1-6.7l-43.1,24.7L171,277.3L114,310l-45.2,25.9c-4.7,2.7-4.5,8.9,0.6,10
		l10.1,2.1l18-6.8c8.9-3.5,19.7-2.7,26.8,1.9l7.7,4.8c4.6,3,11.5,3.4,17.1,1.1l9.9-3.9c6.6-2.7,14.7-3.2,21.2-1.3l6.5,1.9l23.4-2.2
		c6-0.6,12.1-4.1,14.8-9.1l29.2-54.5L283.3,225.5z"/>
	<path class="st3" d="M281.2,227.3c2.8-5.3-4.3-9.5-9.9-6.2l-41.6,23.8l-57.1,32.7l-55.2,31.6l-43.7,25c-4.5,2.6-4.5,8.6,0.3,9.6
		l9.8,1.9l17.4-6.4c8.4-3.3,19.2-2.6,25.9,1.8l7.5,4.6c4.3,2.8,11.2,3.2,16.5,1l9.6-3.7c6.3-2.6,14.3-3,20.5-1.2l6.3,1.8l22.6-2.1
		c5.7-0.6,11.8-3.9,14.3-8.6l28.4-52.8L281.2,227.3z"/>
	<path class="st4" d="M279.1,229.1c2.7-5-4.3-8.8-9.6-5.7l-40.2,23l-55.1,31.6l-53.3,30.5l-42.2,24.2c-4.2,2.4-4.5,8.2,0,9.2
		l9.4,1.8l16.8-6.1c8-3.1,18.6-2.5,25,1.7l7.2,4.3c4.1,2.7,10.9,3,16,0.9l9.3-3.5c5.9-2.4,14-2.9,19.7-1.2l6.1,1.6l21.8-2
		c5.4-0.5,11.6-3.7,13.9-8.1l27.6-51.1L279.1,229.1z"/>
	<path class="st5" d="M276.9,230.9c2.5-4.7-4.4-8.1-9.4-5.2l-38.8,22.2l-53.2,30.4l-51.4,29.4l-40.7,23.3c-4,2.3-4.5,7.9-0.2,8.8
		l9.1,1.7l16.2-5.7c7.5-2.9,18.1-2.4,24.1,1.6l7,4c3.8,2.5,10.6,2.8,15.4,0.9l9-3.3c5.6-2.3,13.6-2.7,19-1.1l5.9,1.5l21-1.9
		c5.1-0.5,11.3-3.5,13.5-7.7l26.8-49.4L276.9,230.9z"/>
	<path class="st6" d="M274.8,232.7c2.3-4.4-4.5-7.4-9.1-4.7l-37.4,21.3l-51.2,29.2l-49.6,28.3l-39.3,22.4c-3.7,2.1-4.5,7.6-0.5,8.4
		l8.7,1.6l15.6-5.4c7-2.7,17.6-2.2,23.2,1.5l6.7,3.8c3.6,2.4,10.4,2.6,14.8,0.8l8.6-3.1c5.2-2.1,13.3-2.6,18.3-1.1l5.7,1.4l20.3-1.8
		c4.8-0.5,11-3.3,13.1-7.2l26-47.7L274.8,232.7z"/>
	<path class="st7" d="M272.7,234.5c2.2-4.1-4.5-6.7-8.9-4.2l-35.9,20.5l-49.2,28.1L131,306l-37.8,21.5c-3.5,2-4.5,7.2-0.8,8l8.4,1.5
		l15-5c6.6-2.5,17-2.1,22.3,1.3l6.5,3.5c3.4,2.2,10.1,2.4,14.2,0.7l8.3-2.9c4.9-2,12.9-2.4,17.6-1l5.5,1.3l19.5-1.7
		c4.4-0.4,10.7-3.1,12.6-6.7l25.1-46L272.7,234.5z"/>
	<path class="st8" d="M270.6,236.2c2-3.8-4.6-6-8.6-3.7l-34.5,19.6l-47.2,26.9l-45.8,26.1l-36.3,20.7c-3.2,1.9-4.5,6.9-1,7.6l8,1.4
		l14.4-4.7c6.1-2.4,16.5-2,21.4,1.2l6.3,3.3c3.1,2,9.8,2.2,13.7,0.7l8-2.7c4.5-1.9,12.5-2.3,16.9-1l5.2,1.2l18.7-1.6
		c4.1-0.4,10.4-2.9,12.2-6.3l24.3-44.4L270.6,236.2z"/>
	<path class="st9" d="M268.5,238c1.9-3.5-4.7-5.3-8.4-3.2L227,253.7l-45.2,25.7l-43.9,25L103,324.2c-3,1.7-4.5,6.5-1.3,7.2l7.7,1.3
		l13.8-4.4c5.6-2.2,16-1.9,20.5,1.1l6,3c2.9,1.9,9.5,2.1,13.1,0.6l7.7-2.5c4.2-1.7,12.2-2.1,16.2-0.9l5,1.1l17.9-1.5
		c3.8-0.4,10.1-2.7,11.8-5.8l23.5-42.7L268.5,238z"/>
	<path class="st10" d="M266.3,239.8c1.7-3.2-4.7-4.6-8.1-2.7l-31.7,18l-43.2,24.6l-42,23.9l-33.3,18.9c-2.7,1.6-4.5,6.2-1.5,6.8
		l7.3,1.1l13.2-4c5.2-2,15.5-1.7,19.6,1l5.8,2.7c2.6,1.7,9.2,1.9,12.5,0.5l7.3-2.3c3.8-1.6,11.8-2,15.5-0.9l4.8,1l17.1-1.4
		c3.5-0.3,9.8-2.5,11.3-5.3l22.7-41L266.3,239.8z"/>
	<path class="st11" d="M264.2,241.6c1.6-2.9-4.8-3.9-7.9-2.1l-30.2,17.1L184.8,280l-40.2,22.8l-31.8,18c-2.5,1.4-4.5,5.8-1.8,6.4
		l7,1l12.6-3.7c4.7-1.8,14.9-1.6,18.7,0.9l5.6,2.5c2.4,1.6,9,1.7,11.9,0.5l7-2.1c3.5-1.4,11.4-1.8,14.8-0.8l4.6,0.9l16.3-1.3
		c3.2-0.3,9.5-2.3,10.9-4.9l21.9-39.3L264.2,241.6z"/>
	<path class="st12" d="M262.1,243.4c1.4-2.6-4.8-3.2-7.7-1.6l-28.8,16.3l-39.3,22.2L148.1,302l-30.4,17.2c-2.2,1.3-4.5,5.5-2.1,6
		l6.7,0.9l12-3.3c4.2-1.6,14.4-1.5,17.8,0.7l5.3,2.2c2.2,1.4,8.7,1.5,11.4,0.4l6.7-1.9c3.1-1.3,11.1-1.7,14.1-0.7l4.4,0.8l15.6-1.2
		c2.9-0.3,9.2-2.1,10.5-4.4l21-37.6L262.1,243.4z"/>
	<path class="st13" d="M260,245.2c1.3-2.3-4.9-2.6-7.4-1.1l-27.4,15.5l-37.3,21l-36.4,20.6l-28.9,16.3c-2,1.1-4.5,5.2-2.3,5.6
		l6.3,0.8l11.4-3c3.8-1.5,13.9-1.4,16.9,0.6l5.1,2c1.9,1.3,8.4,1.3,10.8,0.3l6.4-1.7c2.8-1.1,10.7-1.5,13.4-0.7l4.2,0.7l14.8-1.1
		c2.5-0.2,8.9-1.9,10-3.9l20.2-35.9L260,245.2z"/>
	<path class="st14" d="M257.9,247c1.1-2.1-5-1.9-7.2-0.6l-26,14.6l-35.3,19.9l-34.5,19.4l-27.4,15.4c-1.7,1-4.5,4.8-2.6,5.2l6,0.7
		l10.8-2.6c3.3-1.3,13.3-1.2,16,0.5l4.8,1.7c1.7,1.1,8.1,1.1,10.2,0.3l6.1-1.5c2.4-1,10.3-1.3,12.7-0.6l3.9,0.6l14-1
		c2.2-0.2,8.6-1.7,9.6-3.5l19.4-34.2L257.9,247z"/>
	<path class="st15" d="M255.8,248.8c0.9-1.8-5-1.2-6.9-0.1l-24.5,13.8L191,281.2l-32.7,18.3l-25.9,14.5c-1.5,0.9-4.5,4.5-2.9,4.8
		l5.6,0.6l10.2-2.3c2.8-1.1,12.8-1.1,15.1,0.4l4.6,1.4c1.4,0.9,7.9,0.9,9.6,0.2l5.7-1.3c2.1-0.9,10-1.2,12-0.6l3.7,0.5l13.2-0.9
		c1.9-0.2,8.3-1.5,9.2-3l18.6-32.5L255.8,248.8z"/>
	<path class="st16" d="M253.6,250.6c0.8-1.5-5.1-0.5-6.7,0.4L223.9,264l-31.3,17.5l-30.8,17.2l-24.4,13.7c-1.2,0.7-4.5,4.1-3.1,4.4
		l5.3,0.4l9.6-2c2.3-0.9,12.3-1,14.2,0.3l4.4,1.2c1.2,0.8,7.6,0.7,9.1,0.1l5.4-1.1c1.7-0.7,9.6-1,11.3-0.5l3.5,0.4l12.4-0.8
		c1.6-0.2,8.1-1.3,8.7-2.6l17.7-30.8L253.6,250.6z"/>
	<path class="st17" d="M251.5,252.4c0.6-1.2-5.2,0.2-6.4,0.9l-21.7,12.1l-29.4,16.4l-28.9,16.1l-22.9,12.8c-1,0.6-4.5,3.8-3.4,4
		l4.9,0.3l9-1.6c1.9-0.7,11.7-0.8,13.2,0.1l4.1,0.9c1,0.6,7.3,0.5,8.5,0.1l5.1-0.9c1.4-0.6,9.3-0.9,10.6-0.5l3.3,0.3l11.6-0.7
		c1.3-0.1,7.8-1.1,8.3-2.1l16.9-29.1L251.5,252.4z"/>
	<path class="st18" d="M249.4,254.2c0.5-0.9-5.2,0.9-6.2,1.4L223,266.9l-27.4,15.2l-27,15L147.1,309c-0.7,0.4-4.5,3.5-3.6,3.6
		l4.6,0.2l8.4-1.3c1.4-0.5,11.2-0.7,12.3,0l3.9,0.7c0.7,0.5,7,0.3,7.9,0l4.8-0.7c1-0.4,8.9-0.7,9.9-0.4l3.1,0.2l10.9-0.6
		c1-0.1,7.5-0.8,7.9-1.6l16.1-27.5L249.4,254.2z"/>
	<path class="st19" d="M247.3,256c0.3-0.6-5.3,1.6-5.9,1.9l-18.8,10.4l-25.4,14L172,296.3l-20,11c-0.5,0.3-4.4,3.1-3.9,3.2l4.2,0.1
		l7.8-0.9c0.9-0.4,10.7-0.6,11.4-0.1l3.6,0.4c0.5,0.3,6.7,0.2,7.3-0.1l4.5-0.5c0.7-0.3,8.5-0.6,9.2-0.4l2.9,0.1l10.1-0.5
		c0.6-0.1,7.2-0.6,7.5-1.2l15.3-25.8L247.3,256z"/>
	<path class="st20" d="M245.2,257.8c0.2-0.3-5.4,2.3-5.7,2.5l-17.4,9.6l-23.4,12.9l-23.3,12.8l-18.5,10.2c-0.2,0.1-4.4,2.8-4.2,2.8
		l3.9,0l7.2-0.6c0.5-0.2,10.2-0.5,10.5-0.2l3.4,0.1c0.2,0.2,6.5,0,6.8-0.2l4.1-0.3c0.3-0.1,8.2-0.4,8.5-0.3l2.7,0l9.3-0.4
		c0.3,0,6.9-0.4,7-0.7l14.5-24.1L245.2,257.8z"/>
	<polygon class="st21" points="157.4,306.4 186.6,305.4 215.8,304.3 229.4,282 243,259.6 221.6,271.3 200.2,283 178.8,294.7 	"/>
</g>
<g>
	<g>
		<linearGradient id="SVGID_1_" gradientUnits="userSpaceOnUse" x1="-112.8508" y1="53.0743" x2="-142.2191" y2="-50.2584">
			<stop  offset="0" style="stop-color:#D4D1D8"/>
			<stop  offset="1" style="stop-color:#FFFFFF"/>
		</linearGradient>
		<polygon class="st22" points="-36.9,-75.9 -235.6,17.5 -216.7,78.2 		"/>
		<linearGradient id="SVGID_2_" gradientUnits="userSpaceOnUse" x1="-131.0545" y1="-8.1877" x2="-140.1188" y2="-28.1291">
			<stop  offset="0" style="stop-color:#FFFFFF"/>
			<stop  offset="1" style="stop-color:#E6E7E8"/>
		</linearGradient>
		<polygon class="st23" points="-36.9,-75.9 -235.6,17.5 -216.7,78.2 		"/>
		<linearGradient id="SVGID_3_" gradientUnits="userSpaceOnUse" x1="-329.5013" y1="-133.1464" x2="-163.694" y2="-34.5774">
			<stop  offset="0" style="stop-color:#D4D1D8"/>
			<stop  offset="1" style="stop-color:#FFFFFF"/>
		</linearGradient>
		<polygon class="st24" points="-36.9,-75.9 -235.6,17.5 -268.7,19.7 -288.2,1.6 		"/>
		<linearGradient id="SVGID_4_" gradientUnits="userSpaceOnUse" x1="-211.458" y1="12.8067" x2="-126.6164" y2="1.1137">
			<stop  offset="0" style="stop-color:#D4D1D8"/>
			<stop  offset="1" style="stop-color:#FFFFFF"/>
		</linearGradient>
		<polygon class="st25" points="-36.9,-75.9 -197.9,39.4 -216.7,78.2 		"/>
		<linearGradient id="SVGID_5_" gradientUnits="userSpaceOnUse" x1="-130.7913" y1="84.6623" x2="-128.5685" y2="37.9819">
			<stop  offset="0" style="stop-color:#FFFFFF"/>
			<stop  offset="1" style="stop-color:#DEDFE0"/>
		</linearGradient>
		<polygon class="st26" points="-36.9,-75.9 -197.9,39.4 -216.7,78.2 		"/>
		<linearGradient id="SVGID_6_" gradientUnits="userSpaceOnUse" x1="2.1935" y1="65.0216" x2="-127.4254" y2="-19.0947">
			<stop  offset="0" style="stop-color:#D4D1D8"/>
			<stop  offset="1" style="stop-color:#FFFFFF"/>
		</linearGradient>
		<polygon class="st27" points="-36.9,-75.9 -197.9,39.4 -172.8,67 -142,78.3 		"/>
		<polygon class="st28" points="-142,78.3 -172.8,67 -197.9,39.4 -216.7,78.2 -235.6,17.5 -268.7,19.7 -288.2,1.6 -267.9,19.2 
			-235,17.2 -216.6,75.6 -197.9,39.4 -172.7,65.9 		"/>
	</g>
</g>
<g>
	<g>
		<polygon class="st29" points="125.1,273.9 303.4,65 135.6,223.7 		"/>
		<g>
		</g>
		<g>
			
				<linearGradient id="SVGID_7_" gradientUnits="userSpaceOnUse" x1="-147.1654" y1="259.5373" x2="-421.3684" y2="223.4086" gradientTransform="matrix(0.6579 0.4076 -1.0882 0.7551 572.7098 18.4612)">
				<stop  offset="0" style="stop-color:#D4D1D8"/>
				<stop  offset="1" style="stop-color:#FFFFFF"/>
			</linearGradient>
			<polygon class="st30" points="303.4,65 96.5,208.6 16.3,177.6 			"/>
			
				<linearGradient id="SVGID_8_" gradientUnits="userSpaceOnUse" x1="445.6408" y1="165.9299" x2="611.7437" y2="141.7213" gradientTransform="matrix(-0.9156 -0.1998 -0.8824 0.8345 850.4503 126.1376)">
				<stop  offset="0" style="stop-color:#D4D1D8"/>
				<stop  offset="1" style="stop-color:#FFFFFF"/>
			</linearGradient>
			<polygon class="st31" points="303.4,65 135.6,223.7 226.7,258.8 			"/>
			
				<linearGradient id="SVGID_9_" gradientUnits="userSpaceOnUse" x1="65.618" y1="194.4186" x2="-144.0112" y2="107.1833" gradientTransform="matrix(0.9329 0.3601 -0.7783 0.6279 371.5907 92.3977)">
				<stop  offset="0" style="stop-color:#FFFFFF"/>
				<stop  offset="1" style="stop-color:#E6E7E8"/>
			</linearGradient>
			<polygon class="st32" points="135.6,223.7 303.4,65 96.5,208.6 125.1,273.9 			"/>
		</g>
		<linearGradient id="SVGID_10_" gradientUnits="userSpaceOnUse" x1="92.9343" y1="136.7863" x2="303.3672" y2="136.7863">
			<stop  offset="0" style="stop-color:#D4D1D8"/>
			<stop  offset="1" style="stop-color:#FFFFFF"/>
		</linearGradient>
		<polygon class="st33" points="92.9,207.2 303.4,65 96.5,208.6 		"/>
		<linearGradient id="SVGID_11_" gradientUnits="userSpaceOnUse" x1="135.6214" y1="144.9553" x2="303.3672" y2="144.9553">
			<stop  offset="0" style="stop-color:#D4D1D8"/>
			<stop  offset="1" style="stop-color:#FFFFFF"/>
		</linearGradient>
		<polygon class="st34" points="135.6,223.7 303.4,65 138.8,224.9 		"/>
	</g>
</g>
</svg>
