<svg id="Capa_1" data-name="Capa 1" xmlns="http://www.w3.org/2000/svg" viewBox="0 0 512 512"><defs><style>.cls-1{fill:#fff;}</style></defs><title>github</title><path class="cls-1" d="M184.67,411.67c-3.55.66-5.11,2.34-4.67,5s2.45,3.56,6,2.68,5.11-2.46,4.65-4.68c-.44-2.44-2.43-3.46-6-3Zm0,0" transform="translate(0 0)"/><path class="cls-1" d="M165.68,414.33c-3.56,0-5.34,1.22-5.34,3.68,0,2.87,1.9,4.09,5.67,3.65,3.56,0,5.34-1.21,5.34-3.65,0-2.9-1.9-4.12-5.67-3.68Zm0,0" transform="translate(0 0)"/><path class="cls-1" d="M139.66,413.33c-.88,2.44.56,4.12,4.34,5q5,2,6.33-2c.68-2.44-.78-4.22-4.33-5.34-3.32-.88-5.44-.12-6.34,2.34Zm0,0" transform="translate(0 0)"/><path class="cls-1" d="M483.83,28.16Q455.68,0,416,0H96Q56.35,0,28.17,28.16T0,96V416q0,39.67,28.17,67.82T96,512h74.68a92.34,92.34,0,0,0,11-.48c2.44-.34,4.88-1.8,7.34-4.35s3.65-6.28,3.65-11.17q0-1-.16-22.66T192.32,439l-7.67,1.34a99.69,99.69,0,0,1-18.5,1.16A141.5,141.5,0,0,1,143,439.16a51.9,51.9,0,0,1-22.34-10A42.33,42.33,0,0,1,106,408.68L102.66,401a81.74,81.74,0,0,0-10.5-17Q85,374.65,77.67,371.34l-2.34-1.68a24.5,24.5,0,0,1-4.33-4A18.06,18.06,0,0,1,68,361c-.68-1.56-.12-2.84,1.66-3.83s5-1.5,9.67-1.5l6.67,1c4.44.9,9.93,3.55,16.5,8A53.78,53.78,0,0,1,118.67,382q7.67,13.65,18.49,20.83C144.37,407.6,151.67,410,159,410a95.13,95.13,0,0,0,19-1.67,65.32,65.32,0,0,0,15-5Q196,381,209.33,369a227.34,227.34,0,0,1-34.17-6,134.66,134.66,0,0,1-31.32-13A89.53,89.53,0,0,1,117,327.65q-10.68-13.33-17.5-35t-6.84-50q0-40.33,26.36-68.66-12.36-30.33,2.31-68,9.68-3,28.67,4.49t27.85,12.85q8.83,5.33,14.16,9a241.09,241.09,0,0,1,128,0l12.66-8a178.66,178.66,0,0,1,30.69-14.67Q381,103,390.34,106q15,37.67,2.66,68,26.33,28.35,26.35,68.66,0,28.35-6.84,50.19t-17.66,35a93.16,93.16,0,0,1-27,22.15,135.08,135.08,0,0,1-31.33,13,227.94,227.94,0,0,1-34.18,6q17.32,15,17.34,47.33V496a21.39,21.39,0,0,0,1.66,9.17,9.23,9.23,0,0,0,5.33,4.83,29.93,29.93,0,0,0,6.51,1.66,74.91,74.91,0,0,0,8.15.34H416q39.67,0,67.82-28.17T512,416V96q0-39.64-28.17-67.83Zm0,0" transform="translate(0 0)"/><path class="cls-1" d="M101.32,372.68c-1.53,1.1-1.31,2.87.68,5.31,2.22,2.24,4,2.56,5.34,1,1.56-1.1,1.34-2.87-.68-5.33-2.22-2-4-2.32-5.34-1Zm0,0" transform="translate(0 0)"/><path class="cls-1" d="M90.34,364.33c-.66,1.56.12,2.89,2.33,4,1.78,1.1,3.22.88,4.34-.68q1-2.31-2.34-4c-2.22-.68-3.67-.44-4.33.66Zm0,0" transform="translate(0 0)"/><path class="cls-1" d="M111.67,385.66q-3,1.68,0,6c2,2.87,3.88,3.65,5.66,2.31,2-1.56,2-3.65,0-6.33-1.76-2.88-3.66-3.56-5.66-2Zm0,0" transform="translate(0 0)"/><path class="cls-1" d="M123.34,400.66c-2,1.78-1.56,3.88,1.34,6.34,2.65,2.65,4.87,3,6.65,1,1.78-1.78,1.34-3.88-1.32-6.33-2.68-2.66-4.89-3-6.67-1Zm0,0" transform="translate(0 0)"/></svg>