<svg id="Capa_1" data-name="Capa 1" xmlns="http://www.w3.org/2000/svg" viewBox="0 0 512 512"><defs><style>.cls-1{fill:#fff;}</style></defs><title>instagram</title><path class="cls-1" d="M376,91H136a45.05,45.05,0,0,0-45,45V376a45.05,45.05,0,0,0,45,45H376a45.05,45.05,0,0,0,45-45V136a45.05,45.05,0,0,0-45-45ZM256,361A105,105,0,1,1,361,256,105.13,105.13,0,0,1,256,361ZM361,181a30,30,0,1,1,30-30,30,30,0,0,1-30,30Zm0,0"/><path class="cls-1" d="M256,181a75,75,0,1,0,75,75,75.09,75.09,0,0,0-75-75Zm0,0"/><path class="cls-1" d="M436,0H76C34.65,0,0,34.65,0,76V436c0,41.35,34.65,76,76,76H436c41.35,0,76-34.65,76-76V76c0-41.35-34.65-76-76-76Zm15,376a75.09,75.09,0,0,1-75,75H136a75.09,75.09,0,0,1-75-75V136a75.09,75.09,0,0,1,75-75H376a75.09,75.09,0,0,1,75,75Zm0,0"/></svg>