<?xml version="1.0" encoding="utf-8"?>
<!-- Generator: Adobe Illustrator 22.0.1, SVG Export Plug-In . SVG Version: 6.00 Build 0)  -->
<svg version="1.1" id="Layer_1" xmlns="http://www.w3.org/2000/svg" xmlns:xlink="http://www.w3.org/1999/xlink" x="0px" y="0px"
	 viewBox="0 0 372 363" style="enable-background:new 0 0 372 363;" xml:space="preserve">
<style type="text/css">
	.st0{fill:#00ABED;}
	.st1{fill:#3EC10E;}
</style>
<path class="st0" d="M184.8,27.3c48.6,0,97.2,0,145.8,0c6.1,0,11.6,1.7,16.2,6c4.2,4,6.2,9,6.2,14.7c0,67.4,0,134.8,0,202.3
	c0,12-9,20.7-21.1,20.7c-32.9,0-65.9,0.1-98.8-0.1c-3.4,0-4.9,1-5.4,4.3c-1,6.6-2.7,13.1-3.1,19.7c-0.5,7.6,3.2,13.7,10.6,16
	c7.7,2.3,15.7,3.8,23.7,4.6c8.8,0.9,17.7,0.7,26.5,0.8c2.8,0,3.6,1,3.5,3.7c-0.2,3.9-0.2,7.9,0,11.8c0.1,2.8-0.7,3.9-3.7,3.8
	c-4.6-0.2-9.2-0.1-13.8-0.1c-65.3,0-130.7,0-196,0c-4.7,0-4.7,0-4.7-4.6c0-3.9,0.1-7.9,0-11.8c0-2,0.7-2.7,2.7-2.7
	c8.4-0.1,16.9,0,25.2-0.7c9-0.8,18-2,26.8-4c10.3-2.3,18.6-9.6,16.4-25.1c-0.6-4-1.4-7.9-2.1-11.9c-0.4-2.8-1.8-3.6-4.7-3.6
	c-31.5,0.1-63-0.2-94.6,0.2c-12.6,0.2-21.6-7.1-21.6-21.8c0-10,0-19.9,0-29.9c0-56.6,0-113.2,0-169.8c0-5.9,0.9-11.5,5-16.2
	c4.1-4.6,9.4-6.2,15.3-6.2C87.6,27.3,136.2,27.3,184.8,27.3z M328,51.6c-1.4,0-2.7,0-4,0c-39,0-77.9,0-116.9,0.1
	C154,51.8,101,52.1,47.9,52.2c-4.3,0-4.3,0-4.3,4.3c0,61.8,0,123.7,0,185.5c0,4.5,0,4.5,4.6,4.5c91.7,0,183.4,0,275.1,0
	c4.6,0,4.6,0,4.6-4.5c0-53.2,0-106.4,0-159.6C328,72.4,328,62.3,328,51.6z"/>
<g>
	<path class="st1" d="M163,199.2l48.3-48.2c0,0,1.6-2.6-0.4-5.4L163,99c0,0-5.7,0-7.4,7.2l41.7,41.6c0,0,0.5,1.1-0.6,2.7l-40.1,40.8
		C156.5,191.4,156.7,197.1,163,199.2z"/>
	<path class="st1" d="M255.9,187.3h-38.1c-3.3,0-5.9-2.6-5.9-5.9v-4c0-3.3,2.6-5.9,5.9-5.9h38.1c3.3,0,5.9,2.6,5.9,5.9v4
		C261.8,184.7,259.2,187.3,255.9,187.3z"/>
	<g>
		<path class="st1" d="M126.4,192.8v-10.8c-6.2-0.1-12.6-2-16.3-4.7l2.6-7.1c3.8,2.6,9.4,4.6,15.3,4.6c7.6,0,12.7-4.4,12.7-10.4
			c0-5.9-4.2-9.5-12-12.7c-10.9-4.3-17.6-9.2-17.6-18.4c0-8.8,6.3-15.6,16.1-17.2v-10.8h6.6v10.3c6.4,0.2,10.8,1.9,13.9,3.7l-2.7,7
			c-2.2-1.3-6.6-3.6-13.4-3.6c-8.2,0-11.3,4.9-11.3,9.2c0,5.5,3.9,8.3,13.2,12.1c11,4.5,16.5,10,16.5,19.5c0,8.4-5.9,16.3-16.8,18.1
			v11.1H126.4z"/>
	</g>
</g>
</svg>
