<svg id="Capa_1" data-name="Capa 1" xmlns="http://www.w3.org/2000/svg" viewBox="0 0 512 512"><defs><style>.cls-1{fill:#fff;}</style></defs><title>linkdin</title><path class="cls-1" d="M475.07,0H36.93A36.92,36.92,0,0,0,0,36.93V475.07A36.92,36.92,0,0,0,36.93,512H475.07A36.92,36.92,0,0,0,512,475.07V36.93A36.92,36.92,0,0,0,475.07,0ZM181.61,387H119.26V199.43h62.35ZM150.44,173.81H150c-20.92,0-34.45-14.4-34.45-32.4,0-18.41,13.94-32.41,35.27-32.41s34.45,14,34.86,32.41c0,18-13.53,32.4-35.27,32.4ZM406.42,387H344.08V286.65c0-25.22-9-42.42-31.58-42.42-17.23,0-27.48,11.61-32,22.8-1.65,4-2.05,9.61-2.05,15.22V387H216.11s.82-170,0-187.57h62.35V226c8.28-12.78,23.11-31,56.18-31,41,0,71.78,26.81,71.78,84.42Zm0,0"/></svg>