<?xml version="1.0" encoding="utf-8"?>
<!-- Generator: Adobe Illustrator 22.0.1, SVG Export Plug-In . SVG Version: 6.00 Build 0)  -->
<svg version="1.1" id="Layer_1" xmlns="http://www.w3.org/2000/svg" xmlns:xlink="http://www.w3.org/1999/xlink" x="0px" y="0px"
	 viewBox="0 0 268.9 69.8" style="enable-background:new 0 0 268.9 69.8;" xml:space="preserve">
<style type="text/css">
	.st0{fill:#EC1C24;}
	.st1{fill:#FFFFFF;stroke:#FFFFFF;stroke-width:4;stroke-miterlimit:10;}
	.st2{fill:#FFFFFF;}
</style>
<g>
	<g>
		<g>
			<path class="st0" d="M129.6,41.4c0,5.5-1.8,10.3-5.5,14.2c-3.7,4.1-8.3,6.1-13.8,6.1s-10.1-2-13.9-6.1C92.8,51.7,91,47,91,41.5
				s1.8-10.3,5.5-14.2c3.7-4,8.4-6,13.9-6s10.1,2,13.8,6C127.7,31.2,129.6,35.9,129.6,41.4z M121.2,41.5c0-3.2-1-6-3-8.3
				c-2.1-2.4-4.7-3.6-7.9-3.6c-3.2,0-5.8,1.2-7.9,3.6c-2,2.3-3,5.1-3,8.3s1,5.9,3,8.3c2.1,2.5,4.8,3.7,7.9,3.7
				c3.2,0,5.8-1.2,7.9-3.7C120.2,47.4,121.2,44.6,121.2,41.5z"/>
		</g>
	</g>
	<path class="st1" d="M191.3,24.2h4.6v6.4c1.8-2.4,3.9-4.3,6.1-5.5c2.2-1.2,4.6-1.8,7.2-1.8c2.7,0,5,0.7,7.1,2s3.6,3.2,4.6,5.5
		s1.5,5.8,1.5,10.7v18.3h-4.6v-17c0-4.1-0.2-6.8-0.5-8.2c-0.5-2.4-1.5-4.1-3-5.3c-1.5-1.2-3.5-1.8-5.9-1.8c-2.8,0-5.2,0.9-7.4,2.7
		c-2.2,1.8-3.6,4.1-4.3,6.8c-0.4,1.8-0.7,5-0.7,9.7v13h-4.6V24.2H191.3z"/>
	<path class="st1" d="M172.3,55.5c-1.7,1.5-3.5,2.7-5.6,3.5s-4.4,1.2-7,1.2c-5.8,0-10.3-1.9-13.6-5.7s-4.9-8.1-4.9-12.9
		c0-4.5,1.4-8.5,4.2-12c3.5-4.5,8.2-6.7,14.1-6.7c6.1,0,10.9,2.3,14.5,6.9c2.6,3.2,3.9,7.3,3.9,12.1h-32c0.1,4.1,1.4,7.5,4,10.1
		s5.7,4,9.4,4c1.8,0,3.6-0.3,5.3-0.9c1.7-0.6,3.2-1.5,4.4-2.5L172.3,55.5z M172.8,37.9c-0.6-2.4-1.5-4.4-2.7-5.8
		c-1.2-1.5-2.7-2.6-4.6-3.5c-1.9-0.9-3.9-1.3-6-1.3c-3.5,0-6.5,1.1-9,3.4c-1.8,1.6-3.2,4.1-4.2,7.3h26.5V37.9z"/>
	<path class="st1" d="M262.7,27.6l-2.9,3c-2.4-2.4-4.8-3.6-7.2-3.6c-1.5,0-2.8,0.5-3.8,1.5c-1.1,1-1.6,2.1-1.6,3.4
		c0,1.2,0.4,2.3,1.3,3.3c0.9,1.1,2.7,2.3,5.5,3.8c3.4,1.8,5.7,3.5,6.9,5.1c1.2,1.7,1.8,3.5,1.8,5.6c0,2.9-1,5.4-3.1,7.4
		s-4.6,3-7.7,3c-2.1,0-4-0.4-5.9-1.3c-1.9-0.9-3.4-2.1-4.6-3.7l2.9-3.3c2.3,2.6,4.8,4,7.4,4c1.8,0,3.4-0.6,4.7-1.8
		c1.3-1.2,1.9-2.6,1.9-4.1c0-1.3-0.4-2.5-1.3-3.5s-2.8-2.3-5.8-3.8c-3.2-1.7-5.4-3.3-6.5-4.9c-1.2-1.6-1.7-3.4-1.7-5.5
		c0-2.7,0.9-4.9,2.8-6.7c1.8-1.8,4.2-2.7,7-2.7C256.1,22.8,259.4,24.4,262.7,27.6z"/>
	<g>
		<g>
			<path class="st0" d="M95.5,41.4c0,5.5-1.8,10.3-5.5,14.2c-3.7,4.1-8.3,6.1-13.8,6.1s-10.1-2-13.9-6.1C58.8,51.7,57,47,57,41.5
				s1.8-10.3,5.5-14.2c3.7-4,8.4-6,13.9-6s10.1,2,13.8,6C93.7,31.2,95.5,35.9,95.5,41.4z M87.1,41.5c0-3.2-1-6-3-8.3
				c-2.1-2.4-4.7-3.6-7.9-3.6c-3.2,0-5.8,1.2-7.9,3.6c-2,2.3-3,5.1-3,8.3s1,5.9,3,8.3c2.1,2.5,4.8,3.7,7.9,3.7
				c3.2,0,5.8-1.2,7.9-3.7C86.1,47.4,87.1,44.6,87.1,41.5z"/>
		</g>
	</g>
	<polygon class="st2" points="4.2,13.2 22.7,38.3 22.7,62.6 33.5,62.6 33.5,38.3 47.6,18.3 35.7,18.3 28.1,28.6 16.5,13.2 	"/>
</g>
</svg>
