<?xml version="1.0" encoding="utf-8"?>
<!-- Generator: Adobe Illustrator 22.0.1, SVG Export Plug-In . SVG Version: 6.00 Build 0)  -->
<svg version="1.1" id="Layer_1" xmlns="http://www.w3.org/2000/svg" xmlns:xlink="http://www.w3.org/1999/xlink" x="0px" y="0px"
	 viewBox="0 0 648 765.8" style="enable-background:new 0 0 648 765.8;" xml:space="preserve">
<style type="text/css">
	.st0{fill:#FE1B00;}
	.st1{fill:#121112;}
	.st2{fill:#EC1C24;}
	.st3{fill:#FFFFFF;stroke:#FFFFFF;stroke-width:4;stroke-miterlimit:10;}
	.st4{fill:#FFFFFF;}
	.st5{clip-path:url(#SVGID_2_);}
	.st6{clip-path:url(#SVGID_4_);}
	.st7{fill:#0094C1;}
	.st8{fill:#FFFFFF;stroke:#FFFFFF;stroke-width:3;stroke-miterlimit:10;}
	.st9{font-family:'MyriadPro-Regular';}
	.st10{font-size:20.4055px;}
</style>
<rect x="-0.2" y="-0.7" class="st0" width="648" height="766.5"/>
<title>logo</title>
<rect x="19.6" y="19.4" class="st1" width="608.5" height="719.9"/>
<rect x="-1441.3" y="-0.7" class="st0" width="648" height="766.5"/>
<title>logo</title>
<rect x="-1421.5" y="19.4" class="st1" width="608.5" height="719.9"/>
<g>
	<g>
		<g>
			<path class="st2" d="M-1125,229.1c0,11.1-3.6,20.7-11.1,28.5c-7.4,8.2-16.7,12.3-27.7,12.3s-20.3-4-27.9-12.3
				c-7.2-7.8-10.9-17.3-10.9-28.3s3.6-20.7,11.1-28.5c7.4-8,16.9-12.1,27.9-12.1s20.3,4,27.7,12.1
				C-1128.8,208.6-1125,218.1-1125,229.1z M-1141.9,229.3c0-6.4-2-12.1-6-16.7c-4.2-4.8-9.4-7.2-15.9-7.2s-11.7,2.4-15.9,7.2
				c-4,4.6-6,10.2-6,16.7c0,6.4,2,11.9,6,16.7c4.2,5,9.6,7.4,15.9,7.4c6.4,0,11.7-2.4,15.9-7.4
				C-1143.9,241.2-1141.9,235.6-1141.9,229.3z"/>
		</g>
	</g>
	<path class="st3" d="M-1039.2,257.5c-3.4,3-7,5.4-11.3,7s-8.8,2.4-14.1,2.4c-11.7,0-20.7-3.8-27.3-11.5c-6.6-7.6-9.8-16.3-9.8-25.9
		c0-9,2.8-17.1,8.4-24.1c7-9,16.5-13.5,28.3-13.5c12.3,0,21.9,4.6,29.1,13.9c5.2,6.4,7.8,14.7,7.8,24.3h-64.3
		c0.2,8.2,2.8,15.1,8,20.3c5.2,5.2,11.5,8,18.9,8c3.6,0,7.2-0.6,10.6-1.8c3.4-1.2,6.4-3,8.8-5L-1039.2,257.5z M-1038.2,222.1
		c-1.2-4.8-3-8.8-5.4-11.7c-2.4-3-5.4-5.2-9.2-7c-3.8-1.8-7.8-2.6-12.1-2.6c-7,0-13.1,2.2-18.1,6.8c-3.6,3.2-6.4,8.2-8.4,14.7h53.2
		V222.1z"/>
	<path class="st3" d="M-857.6,201.4l-5.8,6c-4.8-4.8-9.6-7.2-14.5-7.2c-3,0-5.6,1-7.6,3c-2.2,2-3.2,4.2-3.2,6.8
		c0,2.4,0.8,4.6,2.6,6.6c1.8,2.2,5.4,4.6,11.1,7.6c6.8,3.6,11.5,7,13.9,10.2c2.4,3.4,3.6,7,3.6,11.3c0,5.8-2,10.9-6.2,14.9
		c-4.2,4-9.2,6-15.5,6c-4.2,0-8-0.8-11.9-2.6s-6.8-4.2-9.2-7.4l5.8-6.6c4.6,5.2,9.6,8,14.9,8c3.6,0,6.8-1.2,9.4-3.6
		c2.6-2.4,3.8-5.2,3.8-8.2c0-2.6-0.8-5-2.6-7c-1.8-2-5.6-4.6-11.7-7.6c-6.4-3.4-10.9-6.6-13.1-9.8c-2.4-3.2-3.4-6.8-3.4-11.1
		c0-5.4,1.8-9.8,5.6-13.5c3.6-3.6,8.4-5.4,14.1-5.4C-870.8,191.8-864.2,195-857.6,201.4z"/>
	<g>
		<g>
			<path class="st2" d="M-1193.5,229.1c0,11.1-3.6,20.7-11.1,28.5c-7.4,8.2-16.7,12.3-27.7,12.3s-20.3-4-27.9-12.3
				c-7-7.8-10.6-17.3-10.6-28.3s3.6-20.7,11.1-28.5c7.4-8,16.9-12.1,27.9-12.1s20.3,4,27.7,12.1
				C-1197.1,208.6-1193.5,218.1-1193.5,229.1z M-1210.4,229.3c0-6.4-2-12.1-6-16.7c-4.2-4.8-9.4-7.2-15.9-7.2s-11.7,2.4-15.9,7.2
				c-4,4.6-6,10.2-6,16.7c0,6.4,2,11.9,6,16.7c4.2,5,9.6,7.4,15.9,7.4c6.4,0,11.7-2.4,15.9-7.4
				C-1212.4,241.2-1210.4,235.6-1210.4,229.3z"/>
		</g>
	</g>
	<polygon class="st4" points="-1377,172.5 -1339.8,222.9 -1339.8,271.7 -1318.1,271.7 -1318.1,222.9 -1289.8,182.7 -1313.7,182.7 
		-1328.9,203.4 -1352.2,172.5 	"/>
	<g>
		<path class="st3" d="M-1001,194.6h9.2v12.9c3.6-4.8,7.8-8.6,12.3-11.1s9.2-3.6,14.5-3.6c5.4,0,10,1.4,14.3,4
			c4.2,2.6,7.2,6.4,9.2,11.1c2,4.6,3,11.7,3,21.5v36.8h-9.2V232c0-8.2-0.4-13.7-1-16.5c-1-4.8-3-8.2-6-10.6s-7-3.6-11.9-3.6
			c-5.6,0-10.4,1.8-14.9,5.4s-7.2,8.2-8.6,13.7c-0.8,3.6-1.4,10-1.4,19.5v26.1h-9.2v-71.3H-1001z"/>
		<polygon class="st4" points="-1001,192.2 -1003.2,192.2 -1003.2,194.7 -1000.8,194.7 -1000.8,192.2 		"/>
	</g>
</g>
<text transform="matrix(1 0 0 1 -1349.9237 383.02)" class="st4 st9" style="font-size:35.628px;">We succeed when you succeed.</text>
<g>
	<text transform="matrix(1 0 0 1 -1152.2059 688.6016)" class="st4 st9 st10">younes_elmz</text>
	<path class="st4" d="M-1166,665.5h-24.3c-2.5,0-4.5,2-4.6,4.6v24.3c0,2.5,2,4.5,4.6,4.6h24.3c2.5,0,4.5-2,4.6-4.6V670
		C-1161.4,667.5-1163.4,665.5-1166,665.5z M-1178.1,692.8c-5.9,0-10.6-4.8-10.6-10.6c0-5.9,4.8-10.6,10.6-10.6
		c5.9,0,10.6,4.8,10.6,10.6C-1167.5,688-1172.2,692.8-1178.1,692.8z M-1167.5,674.6c-1.7,0-3-1.4-3-3c0-1.7,1.4-3,3-3
		c1.7,0,3,1.4,3,3C-1164.4,673.2-1165.8,674.6-1167.5,674.6L-1167.5,674.6z"/>
</g>
<rect x="-717.3" y="-0.7" class="st0" width="648" height="766.5"/>
<rect x="-697.5" y="19.4" class="st1" width="608.5" height="719.9"/>
<g>
	<g>
		<defs>
			<rect id="SVGID_1_" x="-697.5" y="22.2" width="608.5" height="715.9"/>
		</defs>
		<clipPath id="SVGID_2_">
			<use xlink:href="#SVGID_1_"  style="overflow:visible;"/>
		</clipPath>
		<g class="st5">
			
				<image style="overflow:visible;enable-background:new    ;" width="4750" height="3167" xlink:href="C:\My Web Sites\lolo\jigsaw.google.com\yoones\arch\DDB93A75.jpeg"  transform="matrix(0.2386 0 0 0.2261 -697.5174 22.1923)">
			</image>
		</g>
	</g>
	<g>
		<defs>
			<rect id="SVGID_3_" x="-697.5" y="22.2" width="608.5" height="715.9"/>
		</defs>
		<clipPath id="SVGID_4_">
			<use xlink:href="#SVGID_3_"  style="overflow:visible;"/>
		</clipPath>
		<g class="st6">
			<g>
				<path class="st7" d="M-277.3,302.1c-4.3,0-8.5,0.4-12.6,1.2c-3.1-14.8-13.2-27.4-27.4-34.3c-14.2-6.9-30.9-7.2-45.3-0.8
					c-13.1-34.1-52.9-51.7-88.9-39.4c-36,12.4-54.6,50.1-41.6,84.2c-31.5,0.9-56.5,25.7-56,55.6c0.5,30,26.2,54,57.8,54h214.2
					c35.2,0,63.6-27,63.6-60.3S-242.1,302.1-277.3,302.1L-277.3,302.1z"/>
			</g>
			<g>
				<g>
					<g>
						<path class="st2" d="M-377.4,353.2c0,4-1.3,7.3-4.1,10.1c-2.7,2.9-6.3,4.3-10.2,4.3c-4.2,0-7.6-1.4-10.3-4.2
							c-2.8-2.7-4.1-6.1-4.1-10c0-4,1.3-7.3,4.1-10c2.8-2.8,6.3-4.2,10.3-4.2s7.5,1.4,10.2,4.2C-378.7,346-377.4,349.3-377.4,353.2z
							 M-383.7,353.3c0-2.3-0.8-4.2-2.3-5.8c-1.6-1.7-3.5-2.6-5.9-2.6s-4.3,0.8-5.9,2.5c-1.5,1.6-2.3,3.6-2.3,5.9s0.7,4.1,2.3,5.8
							c1.6,1.7,3.6,2.6,5.9,2.6c2.3,0,4.3-0.8,5.9-2.6C-384.4,357.4-383.7,355.5-383.7,353.3z"/>
					</g>
				</g>
				<path class="st3" d="M-331.4,341.1h3.4v4.5c1.3-1.7,2.9-3,4.6-3.9c1.7-0.8,3.5-1.2,5.4-1.2c2,0,3.8,0.5,5.3,1.4
					c1.6,0.9,2.7,2.2,3.4,3.9c0.8,1.7,1.1,4.1,1.1,7.5v12.9h-3.4v-12c0-2.9-0.2-4.8-0.4-5.8c-0.4-1.6-1.2-2.9-2.3-3.8
					c-1.1-0.8-2.6-1.2-4.4-1.2c-2.1,0-3.9,0.7-5.6,2c-1.7,1.2-2.8,2.9-3.3,4.8c-0.3,1.2-0.5,3.6-0.5,6.9v9.2h-3.4L-331.4,341.1
					L-331.4,341.1z"/>
				<path class="st8" d="M-345.6,363.2c-1.3,1.1-2.7,1.9-4.2,2.4c-1.6,0.6-3.3,0.8-5.2,0.8c-4.3,0-7.8-1.3-10.1-4
					c-2.4-2.6-3.7-5.7-3.7-9.1c0-3.2,1-6,3.1-8.5c2.7-3.1,6.2-4.7,10.5-4.7c4.5,0,8.2,1.6,10.7,4.9c1.9,2.3,2.9,5.2,2.9,8.6h-23.8
					c0.1,2.9,1.1,5.4,3,7.2c1.9,1.9,4.3,2.8,7.1,2.8c1.3,0,2.7-0.3,3.9-0.7c1.3-0.5,2.3-1,3.3-1.8L-345.6,363.2z M-345.1,350.8
					c-0.4-1.7-1.1-3.1-2-4.1c-0.8-1-2-1.9-3.5-2.5c-1.4-0.7-2.9-0.9-4.5-0.9c-2.6,0-4.8,0.8-6.8,2.4c-1.3,1.2-2.4,2.9-3.1,5.2
					l16.5,0.1H-345.1L-345.1,350.8z"/>
				<path class="st3" d="M-278.1,343.5l-2.2,2.2c-1.8-1.7-3.6-2.5-5.3-2.5c-1.1,0-2.1,0.3-2.8,1c-0.8,0.8-1.2,1.5-1.2,2.4
					c0,0.8,0.3,1.6,1,2.4c0.7,0.8,2,1.7,4.1,2.6c2.6,1.2,4.3,2.4,5.2,3.6c0.9,1.2,1.3,2.5,1.3,4c0,2.1-0.8,3.8-2.3,5.3
					c-1.5,1.4-3.4,2.2-5.8,2.2c-1.5,0-3-0.3-4.4-0.9c-1.4-0.7-2.6-1.5-3.5-2.6l2.2-2.3c1.8,1.9,3.6,2.8,5.6,2.8
					c1.3,0,2.6-0.4,3.5-1.2c1-0.8,1.4-1.8,1.4-2.9c0-0.9-0.3-1.7-0.9-2.4c-0.7-0.8-2.1-1.6-4.3-2.6c-2.4-1.2-4-2.4-4.9-3.5
					c-0.8-1.1-1.3-2.4-1.3-4c0-1.9,0.7-3.5,2.1-4.7c1.4-1.2,3.2-1.9,5.3-1.9C-283.1,340.1-280.6,341.2-278.1,343.5z"/>
				<g>
					<g>
						<path class="st2" d="M-402.8,353.2c0,4-1.3,7.3-4.1,10.1c-2.8,2.9-6.3,4.3-10.2,4.3c-4.2,0-7.6-1.4-10.3-4.2
							c-2.8-2.7-4.1-6.1-4.1-10c0-4,1.3-7.3,4.1-10c2.8-2.8,6.3-4.2,10.3-4.2c4.1,0,7.5,1.4,10.2,4.2
							C-404.2,346-402.8,349.3-402.8,353.2z M-409.1,353.3c0-2.3-0.8-4.2-2.3-5.8c-1.6-1.7-3.5-2.6-5.9-2.6s-4.3,0.8-5.9,2.5
							c-1.5,1.6-2.3,3.6-2.3,5.9s0.8,4.1,2.3,5.8c1.6,1.7,3.6,2.6,5.9,2.6c2.3,0,4.3-0.8,5.9-2.6
							C-409.8,357.4-409.1,355.5-409.1,353.3z"/>
					</g>
				</g>
				<polygon class="st4" points="-470.9,333.3 -457,351 -457,368.2 -449,368.2 -449,351 -438.5,336.9 -447.3,336.9 -453,344.2 
					-461.7,333.3 				"/>
			</g>
		</g>
	</g>
</g>
<g>
	<text transform="matrix(1 0 0 1 -428.2059 688.6016)" class="st4 st9 st10">younes_elmz</text>
	<path class="st4" d="M-442,665.5h-24.3c-2.5,0-4.5,2-4.6,4.6v24.3c0,2.5,2,4.5,4.6,4.6h24.3c2.5,0,4.5-2,4.6-4.6V670
		C-437.4,667.5-439.4,665.5-442,665.5z M-454.1,692.8c-5.9,0-10.6-4.8-10.6-10.6c0-5.9,4.8-10.6,10.6-10.6c5.9,0,10.6,4.8,10.6,10.6
		C-443.5,688-448.2,692.8-454.1,692.8z M-443.5,674.6c-1.7,0-3-1.4-3-3c0-1.7,1.4-3,3-3s3,1.4,3,3
		C-440.4,673.2-441.8,674.6-443.5,674.6L-443.5,674.6z"/>
</g>
<g>
	<defs>
		<rect id="SVGID_5_" x="19.6" y="19.4" width="608.5" height="719.9"/>
	</defs>
	<clipPath id="SVGID_6_">
		<use xlink:href="#SVGID_5_"  style="overflow:visible;"/>
	</clipPath>
	<g style="clip-path:url(#SVGID_6_);">
		
			<image style="overflow:visible;" width="1373" height="2109" xlink:href="profil.jpg"  transform="matrix(0.4432 0 0 0.4432 19.5543 -46.7219)">
		</image>
	</g>
</g>
<g>
	<text transform="matrix(1 0 0 1 288.8658 688.6016)" class="st4 st9 st10">younes_elmz</text>
	<path class="st4" d="M275.1,665.5h-24.3c-2.5,0-4.5,2-4.6,4.6v24.3c0,2.5,2,4.5,4.6,4.6h24.3c2.5,0,4.5-2,4.6-4.6V670
		C279.7,667.5,277.6,665.5,275.1,665.5z M263,692.8c-5.9,0-10.6-4.8-10.6-10.6c0-5.9,4.8-10.6,10.6-10.6c5.9,0,10.6,4.8,10.6,10.6
		C273.6,688,268.8,692.8,263,692.8z M273.6,674.6c-1.7,0-3-1.4-3-3c0-1.7,1.4-3,3-3s3,1.4,3,3C276.6,673.2,275.3,674.6,273.6,674.6
		L273.6,674.6z"/>
</g>
</svg>
