<?xml version="1.0" encoding="utf-8"?>
<!-- Generator: Adobe Illustrator 22.0.1, SVG Export Plug-In . SVG Version: 6.00 Build 0)  -->
<svg version="1.1" id="Layer_1" xmlns="http://www.w3.org/2000/svg" xmlns:xlink="http://www.w3.org/1999/xlink" x="0px" y="0px"
	 viewBox="0 0 612 759.2" style="enable-background:new 0 0 612 759.2;" xml:space="preserve">
<style type="text/css">
	.st0{clip-path:url(#SVGID_4_);}
	.st1{fill:#0094C1;}
	.st2{fill:#EC1C24;}
	.st3{fill:#FFFFFF;stroke:#FFFFFF;stroke-width:4;stroke-miterlimit:10;}
	.st4{fill:#FFFFFF;stroke:#FFFFFF;stroke-width:3;stroke-miterlimit:10;}
	.st5{fill:#FFFFFF;}
</style>
<g>
	<defs>
		<rect id="SVGID_3_" y="-0.4" width="612" height="760.1"/>
	</defs>
	<clipPath id="SVGID_2_">
		<use xlink:href="#SVGID_3_"  style="overflow:visible;"/>
	</clipPath>
	<g style="clip-path:url(#SVGID_2_);">
		
			<image style="overflow:visible;enable-background:new    ;" width="4750" height="3167" xlink:href="C:\My Web Sites\lolo\jigsaw.google.com\yoones\arch\DDB93A75.jpeg"  transform="matrix(0.24 0 0 0.24 0 -0.44)">
		</image>
	</g>
	<g style="clip-path:url(#SVGID_2_);">
		<g>
			<path class="st1" d="M422.6,296.7c-4.3,0-8.5,0.4-12.7,1.3c-3.1-15.7-13.3-29.1-27.6-36.4c-14.3-7.3-31.1-7.6-45.6-0.8
				c-13.2-36.2-53.2-54.9-89.4-41.8c-36.2,13.2-54.9,53.2-41.8,89.4c-31.7,1-56.8,27.3-56.3,59c0.5,31.8,26.3,57.3,58.1,57.3h215.4
				c35.4,0,64-28.7,64-64S458,296.7,422.6,296.7L422.6,296.7z"/>
		</g>
		<g>
			<g>
				<g>
					<path class="st2" d="M321.9,351c0,4.2-1.3,7.7-4.1,10.7c-2.7,3.1-6.3,4.6-10.3,4.6c-4.2,0-7.6-1.5-10.4-4.5
						c-2.8-2.9-4.1-6.5-4.1-10.6c0-4.2,1.3-7.7,4.1-10.6c2.8-3,6.3-4.5,10.4-4.5s7.5,1.5,10.3,4.5
						C320.6,343.3,321.9,346.8,321.9,351z M315.6,351.1c0-2.4-0.8-4.5-2.3-6.2c-1.6-1.8-3.5-2.8-5.9-2.8s-4.3,0.9-5.9,2.7
						c-1.5,1.7-2.3,3.8-2.3,6.3s0.7,4.4,2.3,6.2c1.6,1.8,3.6,2.8,5.9,2.8s4.3-0.9,5.9-2.8C314.9,355.5,315.6,353.4,315.6,351.1z"/>
				</g>
			</g>
			<path class="st3" d="M368.2,338.1h3.4v4.8c1.3-1.8,2.9-3.2,4.6-4.1s3.5-1.3,5.4-1.3c2,0,3.8,0.5,5.3,1.5c1.6,1,2.7,2.3,3.4,4.1
				c0.8,1.8,1.1,4.4,1.1,8v13.7H388v-12.7c0-3.1-0.2-5.1-0.4-6.2c-0.4-1.7-1.2-3.1-2.3-4c-1.1-0.9-2.6-1.3-4.4-1.3
				c-2.1,0-3.9,0.7-5.6,2.1c-1.7,1.3-2.8,3.1-3.3,5.1c-0.3,1.3-0.5,3.8-0.5,7.3v9.8h-3.4L368.2,338.1L368.2,338.1z"/>
			<path class="st4" d="M353.9,361.6c-1.3,1.2-2.7,2-4.2,2.6c-1.6,0.6-3.3,0.9-5.2,0.9c-4.3,0-7.8-1.4-10.2-4.2
				c-2.4-2.8-3.7-6.1-3.7-9.7c0-3.4,1-6.4,3.1-9c2.7-3.3,6.2-5,10.6-5c4.5,0,8.2,1.7,10.8,5.2c1.9,2.4,2.9,5.5,2.9,9.1h-23.9
				c0.1,3.1,1.1,5.7,3,7.6c1.9,2,4.3,3,7.1,3c1.3,0,2.7-0.3,3.9-0.7c1.3-0.5,2.3-1.1,3.3-1.9L353.9,361.6z M354.4,348.4
				c-0.4-1.8-1.1-3.3-2-4.4c-0.8-1.1-2-2-3.5-2.7c-1.4-0.7-2.9-1-4.5-1c-2.6,0-4.8,0.8-6.8,2.5c-1.3,1.3-2.4,3.1-3.1,5.5l16.6,0.1
				H354.4L354.4,348.4z"/>
			<path class="st3" d="M421.8,340.7l-2.2,2.3c-1.8-1.8-3.6-2.7-5.3-2.7c-1.1,0-2.1,0.3-2.8,1.1c-0.8,0.8-1.2,1.6-1.2,2.6
				c0,0.8,0.3,1.7,1,2.5s2,1.8,4.1,2.8c2.6,1.3,4.3,2.6,5.2,3.8c0.9,1.3,1.3,2.7,1.3,4.2c0,2.2-0.8,4-2.3,5.6
				c-1.5,1.5-3.4,2.3-5.8,2.3c-1.5,0-3-0.3-4.4-1s-2.6-1.6-3.5-2.8l2.2-2.4c1.8,2,3.6,3,5.6,3c1.3,0,2.6-0.4,3.5-1.3
				c1-0.9,1.4-1.9,1.4-3.1c0-1-0.3-1.8-0.9-2.6c-0.7-0.8-2.1-1.7-4.3-2.8c-2.4-1.3-4-2.5-4.9-3.7c-0.8-1.2-1.3-2.6-1.3-4.2
				c0-2,0.7-3.7,2.1-5s3.2-2,5.3-2C416.8,337.1,419.3,338.2,421.8,340.7z"/>
			<g>
				<g>
					<path class="st2" d="M296.4,351c0,4.2-1.3,7.7-4.1,10.7c-2.8,3.1-6.3,4.6-10.3,4.6c-4.2,0-7.6-1.5-10.4-4.5
						c-2.8-2.9-4.1-6.5-4.1-10.6c0-4.2,1.3-7.7,4.1-10.6c2.8-3,6.3-4.5,10.4-4.5s7.5,1.5,10.3,4.5C295,343.3,296.4,346.8,296.4,351z
						 M290.1,351.1c0-2.4-0.8-4.5-2.3-6.2c-1.6-1.8-3.5-2.8-5.9-2.8s-4.3,0.9-5.9,2.7c-1.5,1.7-2.3,3.8-2.3,6.3s0.8,4.4,2.3,6.2
						c1.6,1.8,3.6,2.8,5.9,2.8s4.3-0.9,5.9-2.8C289.4,355.5,290.1,353.4,290.1,351.1z"/>
				</g>
			</g>
			<polygon class="st5" points="227.9,329.9 241.9,348.7 241.9,366.9 249.9,366.9 249.9,348.7 260.5,333.7 251.6,333.7 245.9,341.4 
				237.2,329.9 			"/>
		</g>
	</g>
</g>
</svg>
