<svg id="Layer_1" data-name="Layer 1" xmlns="http://www.w3.org/2000/svg" xmlns:xlink="http://www.w3.org/1999/xlink" viewBox="0 0 1140 760.08"><defs><style>.cls-1{fill:none;}.cls-2{clip-path:url(#clip-path);}.cls-3{isolation:isolate;}.cls-4{fill:#0094c1;}.cls-5{fill:#ec1c24;}.cls-6,.cls-7,.cls-8{fill:#fff;}.cls-6,.cls-7{stroke:#fff;stroke-miterlimit:10;}.cls-6{stroke-width:4px;}.cls-7{stroke-width:3px;}</style><clipPath id="clip-path" transform="translate(3.33333)"><rect class="cls-1" x="-3.33333" width="612" height="760.08"/></clipPath></defs><title>projet-presentation0</title><g class="cls-2"><image class="cls-3" width="4750" height="3167" transform="scale(0.24)" xlink:href="C:\My Web Sites\lolo\jigsaw.google.com\yoones\arch\DDB93A75.jpeg"/><path class="cls-4" d="M419.24845,297.181a60.166,60.166,0,0,0-12.7,1.3,52.22523,52.22523,0,0,0-73.2-37.2,69.784,69.784,0,0,0-131.2,47.6,58.16486,58.16486,0,0,0,1.8,116.3h215.4a64,64,0,1,0-.1-128Z" transform="translate(3.33333)"/><path class="cls-5" d="M318.54844,351.48094a14.94791,14.94791,0,0,1-4.1,10.7,13.25131,13.25131,0,0,1-10.3,4.6,13.55437,13.55437,0,0,1-10.4-4.5,14.71331,14.71331,0,0,1-4.1-10.6,14.55271,14.55271,0,0,1,4.1-10.6,13.70449,13.70449,0,0,1,10.4-4.5,13.49348,13.49348,0,0,1,10.3,4.5A13.78746,13.78746,0,0,1,318.54844,351.48094Zm-6.3.1a9.14281,9.14281,0,0,0-2.3-6.2,7.58868,7.58868,0,0,0-5.9-2.8,7.494,7.494,0,0,0-5.9,2.7,9.2164,9.2164,0,0,0-2.3,6.3,8.68633,8.68633,0,0,0,2.3,6.2,7.73985,7.73985,0,0,0,5.9,2.8,7.42506,7.42506,0,0,0,5.9-2.8A9.02085,9.02085,0,0,0,312.24845,351.58094Z" transform="translate(3.33333)"/><path class="cls-6" d="M364.84843,338.58094h3.4v4.8a13.65117,13.65117,0,0,1,4.6-4.1,11.32836,11.32836,0,0,1,5.4-1.3,9.4064,9.4064,0,0,1,5.3,1.5,8.0832,8.0832,0,0,1,3.4,4.1c.8,1.8,1.1,4.4,1.1,8v13.7h-3.4v-12.7a37.01231,37.01231,0,0,0-.4-6.2,7.22465,7.22465,0,0,0-2.3-4,6.78065,6.78065,0,0,0-4.4-1.3,8.48612,8.48612,0,0,0-5.6,2.1,9.12281,9.12281,0,0,0-3.3,5.1,37.81458,37.81458,0,0,0-.5,7.3v9.8h-3.4v-26.8Z" transform="translate(3.33333)"/><path class="cls-7" d="M350.54844,362.08094a13.32451,13.32451,0,0,1-4.2,2.6,14.56116,14.56116,0,0,1-5.2.9c-4.3,0-7.8-1.4-10.2-4.2a14.68734,14.68734,0,0,1-3.7-9.7,13.868,13.868,0,0,1,3.1-9,13.03673,13.03673,0,0,1,10.6-5,12.78453,12.78453,0,0,1,10.8,5.2,14.364,14.364,0,0,1,2.9,9.1h-23.9a10.90184,10.90184,0,0,0,3,7.6,9.44283,9.44283,0,0,0,7.1,3,12.79739,12.79739,0,0,0,3.9-.7,11.86957,11.86957,0,0,0,3.3-1.9Zm.5-13.2a10.5486,10.5486,0,0,0-2-4.4,8.8673,8.8673,0,0,0-3.5-2.7,9.88256,9.88256,0,0,0-4.5-1,10.044,10.044,0,0,0-6.8,2.5,12.62572,12.62572,0,0,0-3.1,5.5l16.6.1Z" transform="translate(3.33333)"/><path class="cls-6" d="M418.44843,341.181l-2.2,2.3c-1.8-1.8-3.6-2.7-5.3-2.7a3.93787,3.93787,0,0,0-4,3.7,3.82188,3.82188,0,0,0,1,2.5,12.80224,12.80224,0,0,0,4.1,2.8,14.758,14.758,0,0,1,5.2,3.8,7.18335,7.18335,0,0,1,1.3,4.2,7.85918,7.85918,0,0,1-8.1,7.9,9.7609,9.7609,0,0,1-4.4-1,9.65927,9.65927,0,0,1-3.5-2.8l2.2-2.4c1.8,2,3.6,3,5.6,3a4.91092,4.91092,0,0,0,3.5-1.3,3.91769,3.91769,0,0,0,1.4-3.1,4.1086,4.1086,0,0,0-.9-2.6,14.92481,14.92481,0,0,0-4.3-2.8,15.05085,15.05085,0,0,1-4.9-3.7,7.4625,7.4625,0,0,1-1.3-4.2,6.56848,6.56848,0,0,1,2.1-5,7.57925,7.57925,0,0,1,5.3-2C413.44843,337.58094,415.94843,338.681,418.44843,341.181Z" transform="translate(3.33333)"/><path class="cls-5" d="M293.04844,351.48094a14.94791,14.94791,0,0,1-4.1,10.7,13.39752,13.39752,0,0,1-10.3,4.6,13.55437,13.55437,0,0,1-10.4-4.5,14.71327,14.71327,0,0,1-4.1-10.6,14.55279,14.55279,0,0,1,4.1-10.6,13.7045,13.7045,0,0,1,10.4-4.5,13.49348,13.49348,0,0,1,10.3,4.5A14.16935,14.16935,0,0,1,293.04844,351.48094Zm-6.3.1a9.14281,9.14281,0,0,0-2.3-6.2,7.58868,7.58868,0,0,0-5.9-2.8,7.494,7.494,0,0,0-5.9,2.7,9.6414,9.6414,0,0,0,0,12.5,7.73985,7.73985,0,0,0,5.9,2.8,7.42506,7.42506,0,0,0,5.9-2.8A9.02085,9.02085,0,0,0,286.74845,351.58094Z" transform="translate(3.33333)"/><polygon class="cls-8" points="227.882 330.381 241.882 349.181 241.882 367.381 249.882 367.381 249.882 349.181 260.482 334.181 251.582 334.181 245.882 341.881 237.182 330.381 227.882 330.381"/></g></svg>