<svg id="Layer_1" data-name="Layer 1" xmlns="http://www.w3.org/2000/svg" xmlns:xlink="http://www.w3.org/1999/xlink" viewBox="0 0 1140 760.08"><defs><style>.cls-1{fill:none;}.cls-2{clip-path:url(#clip-path);}.cls-3{isolation:isolate;}.cls-4{fill:#0094c1;}.cls-5{fill:#ec1c24;}.cls-6,.cls-7,.cls-8{fill:#fff;}.cls-6,.cls-7{stroke:#fff;stroke-miterlimit:10;}.cls-6{stroke-width:4px;}.cls-7{stroke-width:3px;}</style><clipPath id="clip-path" transform="translate(0 0.43999)"><rect class="cls-1" y="-0.43999" width="612" height="760.08"/></clipPath></defs><title>projet-presentation</title><g class="cls-2"><image class="cls-3" width="4750" height="3167" transform="scale(0.24)" xlink:href="C:\My Web Sites\lolo\jigsaw.google.com\yoones\arch\DDB93A75.jpeg"/><path class="cls-4" d="M422.58178,296.741a60.16672,60.16672,0,0,0-12.7,1.3,52.22524,52.22524,0,0,0-73.2-37.2,69.784,69.784,0,0,0-131.2,47.6,58.16486,58.16486,0,0,0,1.8,116.3h215.4a64,64,0,1,0-.1-128Z" transform="translate(0 0.43999)"/><path class="cls-5" d="M321.88177,351.04094a14.948,14.948,0,0,1-4.1,10.7,13.25135,13.25135,0,0,1-10.3,4.6,13.55439,13.55439,0,0,1-10.4-4.5,14.71332,14.71332,0,0,1-4.1-10.6,14.55271,14.55271,0,0,1,4.1-10.6,13.70449,13.70449,0,0,1,10.4-4.5,13.4935,13.4935,0,0,1,10.3,4.5A13.78746,13.78746,0,0,1,321.88177,351.04094Zm-6.3.1a9.1428,9.1428,0,0,0-2.3-6.2,7.5887,7.5887,0,0,0-5.9-2.8,7.494,7.494,0,0,0-5.9,2.7,9.21645,9.21645,0,0,0-2.3,6.3,8.6863,8.6863,0,0,0,2.3,6.2,7.73983,7.73983,0,0,0,5.9,2.8,7.42508,7.42508,0,0,0,5.9-2.8A9.02086,9.02086,0,0,0,315.58178,351.14095Z" transform="translate(0 0.43999)"/><path class="cls-6" d="M368.18176,338.14095h3.4v4.8a13.65141,13.65141,0,0,1,4.6-4.1,11.32847,11.32847,0,0,1,5.4-1.3,9.4064,9.4064,0,0,1,5.3,1.5,8.0832,8.0832,0,0,1,3.4,4.1c.8,1.8,1.1,4.4,1.1,8v13.7h-3.4v-12.7a37.01066,37.01066,0,0,0-.4-6.2,7.22466,7.22466,0,0,0-2.3-4,6.78064,6.78064,0,0,0-4.4-1.3,8.48606,8.48606,0,0,0-5.6,2.1,9.1227,9.1227,0,0,0-3.3,5.1,37.814,37.814,0,0,0-.5,7.3v9.8h-3.4v-26.8Z" transform="translate(0 0.43999)"/><path class="cls-7" d="M353.88177,361.64095a13.32469,13.32469,0,0,1-4.2,2.6,14.56137,14.56137,0,0,1-5.2.9c-4.3,0-7.8-1.4-10.2-4.2a14.68732,14.68732,0,0,1-3.7-9.7,13.868,13.868,0,0,1,3.1-9,13.03674,13.03674,0,0,1,10.6-5,12.78449,12.78449,0,0,1,10.8,5.2,14.3639,14.3639,0,0,1,2.9,9.1h-23.9a10.90185,10.90185,0,0,0,3,7.6,9.44285,9.44285,0,0,0,7.1,3,12.79764,12.79764,0,0,0,3.9-.7,11.86959,11.86959,0,0,0,3.3-1.9Zm.5-13.2a10.54823,10.54823,0,0,0-2-4.4,8.86741,8.86741,0,0,0-3.5-2.7,9.88263,9.88263,0,0,0-4.5-1,10.04409,10.04409,0,0,0-6.8,2.5,12.62582,12.62582,0,0,0-3.1,5.5l16.6.1Z" transform="translate(0 0.43999)"/><path class="cls-6" d="M421.78177,340.741l-2.2,2.3c-1.8-1.8-3.6-2.7-5.3-2.7a3.93789,3.93789,0,0,0-4,3.7,3.82181,3.82181,0,0,0,1,2.5,12.80229,12.80229,0,0,0,4.1,2.8,14.758,14.758,0,0,1,5.2,3.8,7.18325,7.18325,0,0,1,1.3,4.2,7.85918,7.85918,0,0,1-8.1,7.9,9.761,9.761,0,0,1-4.4-1,9.65946,9.65946,0,0,1-3.5-2.8l2.2-2.4c1.8,2,3.6,3,5.6,3a4.91089,4.91089,0,0,0,3.5-1.3,3.91771,3.91771,0,0,0,1.4-3.1,4.10857,4.10857,0,0,0-.9-2.6,14.92484,14.92484,0,0,0-4.3-2.8,15.05071,15.05071,0,0,1-4.9-3.7,7.46248,7.46248,0,0,1-1.3-4.2,6.56847,6.56847,0,0,1,2.1-5,7.57922,7.57922,0,0,1,5.3-2C416.78177,337.14095,419.28177,338.241,421.78177,340.741Z" transform="translate(0 0.43999)"/><path class="cls-5" d="M296.38177,351.04094a14.948,14.948,0,0,1-4.1,10.7,13.39754,13.39754,0,0,1-10.3,4.6,13.55439,13.55439,0,0,1-10.4-4.5,14.71324,14.71324,0,0,1-4.1-10.6,14.55275,14.55275,0,0,1,4.1-10.6,13.70452,13.70452,0,0,1,10.4-4.5,13.4935,13.4935,0,0,1,10.3,4.5A14.1693,14.1693,0,0,1,296.38177,351.04094Zm-6.3.1a9.1428,9.1428,0,0,0-2.3-6.2,7.5887,7.5887,0,0,0-5.9-2.8,7.494,7.494,0,0,0-5.9,2.7,9.64143,9.64143,0,0,0,0,12.5,7.73983,7.73983,0,0,0,5.9,2.8,7.42508,7.42508,0,0,0,5.9-2.8A9.02086,9.02086,0,0,0,290.08178,351.14095Z" transform="translate(0 0.43999)"/><polygon class="cls-8" points="227.882 330.381 241.882 349.181 241.882 367.381 249.882 367.381 249.882 349.181 260.482 334.181 251.582 334.181 245.882 341.881 237.182 330.381 227.882 330.381"/></g></svg>