<?xml version="1.0" encoding="utf-8"?>
<!-- Generator: Adobe Illustrator 22.0.1, SVG Export Plug-In . SVG Version: 6.00 Build 0)  -->
<svg version="1.1" id="Layer_1" xmlns="http://www.w3.org/2000/svg" xmlns:xlink="http://www.w3.org/1999/xlink" x="0px" y="0px"
	 viewBox="0 0 232.6 182.2" style="enable-background:new 0 0 232.6 182.2;" xml:space="preserve">
<style type="text/css">
	.st0{fill:none;stroke:#EC1C24;stroke-miterlimit:10;}
</style>
<path class="st0" d="M38.5,84.3c0,0-38.1,15.2-8.9-40.6c3.2-5.3,6.1-7.8,10.5-8.8c5.1-1.1,9,1.6,1.6,14.4C38,55.4,25.2,73.4,19.7,81
	c-2.3,3.2-3.9,6.9-4.4,10.8c-1.1,7.8,1.5,16.8,28-2.5c0,0,4.4-3.4,5.2-4.3c1.7-1.7,0-2.9-2-1.4c0,0-0.1,0-0.1,0.1
	c-2.1,1.7-0.7,5.1,2,5c1.6-0.1,3.6-0.5,4.9-2c0.7,1.8,3.3,5.8-6.1,10.8c-8.9,4.7-23.1,11.2-35.1,14.1c-1.1,0.3-2.1,0.6-3.2,1
	c-3.7,1.4-14.5,4-1.8-4.2c1-0.6,2-1.2,3.1-1.6c12.4-5.1,51.5-21.4,51.5-21.4s61.8-26.5,153-23.2c9,1,27.1,3.1,10,7.7
	C207.6,74.5,123,107.3,123,107.3s-4,2.3-1-8.4s8.4-14.3,15.6-63.1c-3.7,5.6-16.8,28.7-23.3,55c-1,7.3-1.7,15.7-11.4,17.3
	c-3,1-11.7,8-11.7,8s-20.5,19-11.7-2c8.7-15.3,29.6-49.7,29.6-49.7s32.3-56,77.4-56.9c10,0,26.4,2.1,19.6,18.8
	c-8.1,10.3-23.8,28.2-41.6,39.6"/>
</svg>
