<?xml version="1.0" encoding="utf-8"?>
<!-- Generator: Adobe Illustrator 22.0.1, SVG Export Plug-In . SVG Version: 6.00 Build 0)  -->
<svg version="1.1" id="Layer_1" xmlns="http://www.w3.org/2000/svg" xmlns:xlink="http://www.w3.org/1999/xlink" x="0px" y="0px"
	 viewBox="0 0 372 363" style="enable-background:new 0 0 372 363;" xml:space="preserve">
<style type="text/css">
	.st0{fill:#00ABED;}
	.st1{fill:#FFFFFF;}
	.st2{fill:#7DBA00;}
</style>
<path class="st0" d="M184.9,27.3c48.6,0,97.2,0,145.8,0c6.1,0,11.6,1.7,16.2,6c4.2,4,6.2,9,6.2,14.7c0,67.4,0,134.8,0,202.3
	c0,12-9,20.7-21.1,20.7c-32.9,0-65.9,0.1-98.8-0.1c-3.4,0-4.9,1-5.4,4.3c-1,6.6-2.7,13.1-3.1,19.7c-0.5,7.6,3.2,13.7,10.6,16
	c7.7,2.3,15.7,3.8,23.7,4.6c8.8,0.9,17.7,0.7,26.5,0.8c2.8,0,3.6,1,3.5,3.7c-0.2,3.9-0.2,7.9,0,11.8c0.1,2.8-0.7,3.9-3.7,3.8
	c-4.6-0.2-9.2-0.1-13.8-0.1c-65.3,0-130.7,0-196,0c-4.7,0-4.7,0-4.7-4.6c0-3.9,0.1-7.9,0-11.8c0-2,0.7-2.7,2.7-2.7
	c8.4-0.1,16.9,0,25.2-0.7c9-0.8,18-2,26.8-4c10.3-2.3,18.6-9.6,16.4-25.1c-0.6-4-1.4-7.9-2.1-11.9c-0.4-2.8-1.8-3.6-4.7-3.6
	c-31.5,0.1-63-0.2-94.6,0.2c-12.6,0.2-21.6-7.1-21.6-21.8c0-10,0-19.9,0-29.9c0-56.6,0-113.2,0-169.8c0-5.9,0.9-11.5,5-16.2
	c4.1-4.6,9.4-6.2,15.3-6.2C87.7,27.3,136.3,27.3,184.9,27.3z M328.1,51.6c-1.4,0-2.7,0-4,0c-39,0-77.9,0-116.9,0.1
	c-53.1,0.1-106.1,0.4-159.2,0.5c-4.3,0-4.3,0-4.3,4.3c0,61.8,0,123.7,0,185.5c0,4.5,0,4.5,4.6,4.5c91.7,0,183.4,0,275.1,0
	c4.6,0,4.6,0,4.6-4.5c0-53.2,0-106.4,0-159.6C328.1,72.4,328.1,62.3,328.1,51.6z"/>
<path class="st1" d="M145.8,209.5l-50.2-50.1c0,0-1.7-2.7,0.5-5.6l49.7-48.4c0,0,6.8-1.4,6.1,5.9L109,154.7c0,0-1,2.5,0.2,4.1
	l42.7,44.3C151.9,203.2,154.8,212.6,145.8,209.5z"/>
<path class="st1" d="M226.2,209.5l50.2-50.1c0,0,1.7-2.7-0.5-5.6l-49.7-48.4c0,0-6.8-1.4-6.1,5.9l42.9,43.4c0,0,1,2.5-0.2,4.1
	l-42.7,44.3C220.1,203.2,217.2,212.6,226.2,209.5z"/>
<circle class="st2" cx="152.7" cy="155.2" r="11.7"/>
<circle class="st2" cx="185.9" cy="155.2" r="11.7"/>
<circle class="st2" cx="219.1" cy="155.2" r="11.7"/>
</svg>
