<?xml version="1.0" encoding="utf-8"?>
<!-- Generator: Adobe Illustrator 22.0.1, SVG Export Plug-In . SVG Version: 6.00 Build 0)  -->
<svg version="1.1" id="Layer_1" xmlns="http://www.w3.org/2000/svg" xmlns:xlink="http://www.w3.org/1999/xlink" x="0px" y="0px"
	 viewBox="0 0 372 363" style="enable-background:new 0 0 372 363;" xml:space="preserve">
<style type="text/css">
	.st0{fill:#00ABED;}
	.st1{fill:#FFFFFF;}
</style>
<path class="st0" d="M190.4,27.9c48.6,0,97.2,0,145.8,0c6.1,0,11.6,1.7,16.2,6c4.2,4,6.2,9,6.2,14.7c0,67.4,0,134.8,0,202.3
	c0,12-9,20.7-21.1,20.7c-32.9,0-65.9,0.1-98.8-0.1c-3.4,0-4.9,1-5.4,4.3c-1,6.6-2.7,13.1-3.1,19.7c-0.5,7.6,3.2,13.7,10.6,16
	c7.7,2.3,15.7,3.8,23.7,4.6c8.8,0.9,17.7,0.7,26.5,0.8c2.8,0,3.6,1,3.5,3.7c-0.2,3.9-0.2,7.9,0,11.8c0.1,2.8-0.7,3.9-3.7,3.8
	c-4.6-0.2-9.2-0.1-13.8-0.1c-65.3,0-130.7,0-196,0c-4.7,0-4.7,0-4.7-4.6c0-3.9,0.1-7.9,0-11.8c0-2,0.7-2.7,2.7-2.7
	c8.4-0.1,16.9,0,25.2-0.7c9-0.8,18-2,26.8-4c10.3-2.3,18.6-9.6,16.4-25.1c-0.6-4-1.4-7.9-2.1-11.9c-0.4-2.8-1.8-3.6-4.7-3.6
	c-31.5,0.1-63-0.2-94.6,0.2c-12.6,0.2-21.6-7.1-21.6-21.8c0-10,0-19.9,0-29.9c0-56.6,0-113.2,0-169.8c0-5.9,0.9-11.5,5-16.2
	c4.1-4.6,9.4-6.2,15.3-6.2C93.2,27.9,141.8,27.9,190.4,27.9z M333.6,52.2c-1.4,0-2.7,0-4,0c-39,0-77.9,0-116.9,0.1
	c-53.1,0.1-106.1,0.4-159.2,0.5c-4.3,0-4.3,0-4.3,4.3c0,61.8,0,123.7,0,185.5c0,4.5,0,4.5,4.6,4.5c91.7,0,183.4,0,275.1,0
	c4.6,0,4.6,0,4.6-4.5c0-53.2,0-106.4,0-159.6C333.6,73,333.6,62.9,333.6,52.2z"/>
<path class="st1" d="M136.9,113.9c11.6-6.7,22.7-13.2,33.9-19.6c5.1-3,10.2-6,15.4-8.8c1-0.6,2.9-0.7,3.8-0.1
	c16.2,9.2,32.4,18.6,48.6,28c0.2,0.1,0.3,0.3,0.7,0.8c-2.6,1.5-5.2,3.1-7.8,4.6c-13.5,7.8-27.1,15.6-40.6,23.5
	c-1.8,1-3.2,1.3-5.1,0.2c-15.7-9.1-31.4-18.2-47.1-27.2C138.1,114.9,137.7,114.5,136.9,113.9z"/>
<path class="st1" d="M182.3,211.6c-13.7-7.9-27-15.5-40.2-23.2c-2.9-1.7-6-3.3-8.7-5.2c-1-0.7-2-2.2-2-3.3
	c-0.1-17.9-0.1-35.9-0.1-53.8c0-0.4,0.2-0.8,0.4-1.8c5.2,3,10.2,5.8,15.2,8.6c11,6.3,21.9,12.7,32.9,19c1.7,1,2.8,2,2.8,4.3
	c-0.1,17.7,0,35.4-0.1,53.1C182.5,210,182.4,210.5,182.3,211.6z"/>
<path class="st1" d="M244.9,124.6c0,1.5,0,2.5,0,3.6c0,16.7-0.1,33.5,0.1,50.2c0,3-1,4.5-3.5,5.9c-14.8,8.4-29.6,17-44.4,25.5
	c-0.7,0.4-1.5,0.7-2.7,1.3c-0.1-1.4-0.3-2.4-0.3-3.4c0-17,0-33.9,0-50.9c0-2.2,0.6-3.7,2.6-4.8c15.2-8.7,30.3-17.4,45.5-26.1
	C242.9,125.4,243.7,125.1,244.9,124.6z"/>
</svg>
